<?xml version="1.0" encoding="UTF-8"?>
<svg id="Layer_1" xmlns="http://www.w3.org/2000/svg" version="1.1" viewBox="0 0 34 34">
  <!-- Generator: Adobe Illustrator 29.3.0, SVG Export Plug-In . SVG Version: 2.1.0 Build 146)  -->
  <defs>
    <style>
      .st0 {
        fill: #020202;
      }

      .st1 {
        fill: none;
        stroke: #fff;
        stroke-linecap: round;
      }
    </style>
  </defs>
  <circle class="st0" cx="17" cy="16.91" r="16.82"/>
  <g>
    <path class="st1" d="M8.65,8.8c.33.99.51,2.07.24,3.06s-1.08,1.92-2.12,2.07c-1.12.18-2.27-.66-2.67-1.74s-.09-2.31.55-3.26,1.63-1.63,2.64-2.14c2.05-1.01,4.43-1.41,6.7-1.12,2.95.37,5.82,1.9,8.77,1.45.42-.07.86-.18,1.19-.44s.55-.71.44-1.12"/>
    <path class="st1" d="M20.42,7.41c-2.07,1.43-3.42,3.7-4.47,5.97-1.08,2.29-1.94,4.67-3.37,6.77s-3.55,3.86-6.04,4.14c-.48.07-.99.04-1.39-.2s-.64-.84-.37-1.23"/>
    <path class="st1" d="M28.81,9.04c-.07.46.51.86.9.62.37-.31.42-.93.18-1.37s-.73-.68-1.21-.82c-1.61-.4-3.42.75-3.72,2.38-.29,1.48.53,2.93,1.21,4.3.88,1.81,1.52,3.75,1.56,5.75s-.55,4.08-1.92,5.55c-1.56,1.72-3.95,2.47-6.26,2.69-1.7.18-3.5.07-4.89-.88-1.45-.99-2.25-2.84-2.12-4.61s1.08-3.42,2.42-4.56,3.06-1.81,4.83-2.07c1.01-.15,2.23-.11,2.89.71.51.62.48,1.54.15,2.27s-.93,1.3-1.54,1.81c-.86.71-1.81,1.32-2.89,1.59-1.08.26-2.29.11-3.13-.6"/>
  </g>
</svg>